# xmcd
#
# Track frame offsets: 
#        150
#        16570
#        30882
#        45655
#        57482
#        75710
#        90520
#        104397
#        118655
#        133930
#
# Disc length: 1960 seconds
#
# Revision: 17
# Processed by: cddbd v1.5.2PL0 Copyright (c) Steve Scherf et al.
# Submitted via: ExactAudioCopy v0.99pb5
#
DISCID=7307a60a
DTITLE=John Michael Montgomery - Life's A Dance
DYEAR=1992
DGENRE=Country
TTITLE0=Beer and Bones
TTITLE1=Life's a Dance
TTITLE2=When Your Baby Ain't Around
TTITLE3=Line on Love
TTITLE4=I Love the Way You Love Me
TTITLE5=Taking Off the Edge
TTITLE6=Everytime I Fall (It Breaks Her Heart)
TTITLE7=Dream On Texas Ladies
TTITLE8=A Great Memory
TTITLE9=Nickels and Dimes and Love
EXTD=
EXTT0=
EXTT1=
EXTT2=
EXTT3=
EXTT4=
EXTT5=
EXTT6=
EXTT7=
EXTT8=
EXTT9=
PLAYORDER=
